<svg width="1440" height="2551" viewBox="0 0 1440 2551" fill="none" xmlns="http://www.w3.org/2000/svg">
<path fill-rule="evenodd" clip-rule="evenodd" d="M1015.22 1972.67C843.995 2055.41 681.707 2157.18 492.376 2139.43C294.908 2120.92 120.319 2020.32 -15.7281 1876.03C-170.733 1711.62 -313.597 1518.15 -306.334 1292.3C-298.462 1047.5 -193.856 780.53 23.1542 666.909C227.164 560.095 448.972 758.559 678.526 776.655C938.036 797.113 1224.83 617.303 1429.76 777.796C1655.09 954.273 1777.41 1293.37 1683.59 1563.8C1594.61 1820.29 1259.68 1854.54 1015.22 1972.67Z" fill="url(#paint0_linear_76_560)" fill-opacity="0.2"/>
<path d="M985.713 320L1004.36 337.822L1029.43 331.713L1011.6 350.363L1017.71 375.426L999.063 357.604L974 363.713L991.822 345.063L985.713 320Z" fill="#011F4A"/>
<path d="M1349.32 10L1345.5 25.6641L1356.64 37.3205L1340.98 33.5024L1329.32 44.641L1333.14 28.9769L1322 17.3205L1337.66 21.1386L1349.32 10Z" fill="#2B7FFF"/>
<path d="M1320.48 240.568L1324.56 245.565L1330.97 244.824L1325.97 248.9L1326.71 255.306L1322.63 250.309L1316.23 251.051L1321.22 246.974L1320.48 240.568Z" fill="#747272"/>
<defs>
<linearGradient id="paint0_linear_76_560" x1="851" y1="612" x2="851" y2="1832.5" gradientUnits="userSpaceOnUse">
<stop offset="0.334676" stop-color="#2B7FFF"/>
<stop offset="0.634564" stop-color="#2B7FFF" stop-opacity="0"/>
<stop offset="0.894715" stop-color="#2B7FFF" stop-opacity="0"/>
</linearGradient>
</defs>
</svg>
